<svg width="210" height="266" viewBox="0 0 210 266" fill="none" xmlns="http://www.w3.org/2000/svg">
<g id="layer1">
<g id="layer1-6">
<g id="Group">
<g id="Verticale">
<path id="path4582-5" d="M49.001 75.1347C104.743 93.677 128.702 151.337 102.515 203.922C102.358 204.237 102.201 204.551 102.041 204.865" stroke="#FFB764" stroke-width="12.7901" stroke-linecap="round"/>
<path id="path4582-5-6" d="M23.6107 114.751C63.223 130.196 81.5519 174.307 64.5495 213.276C64.4485 213.509 64.3457 213.741 64.2426 213.973" stroke="#FFB764" stroke-width="9.29939" stroke-linecap="round"/>
</g>
<g id="Laterale">
<path id="path4582-5-6-9" d="M119.818 88.739C102.007 117.247 60.4441 142.97 26.9839 146.193C26.7828 146.214 26.5835 146.23 26.3835 146.25" stroke="#FFB764" stroke-width="6.55151" stroke-linecap="round"/>
<path id="path4582-5-6-9-0" d="M142.135 141.066C123.535 172.157 79.6136 199.198 44.0336 201.464C43.8187 201.481 43.6096 201.491 43.3965 201.503" stroke="#FFB764" stroke-width="7.13762" stroke-linecap="round"/>
</g>
<path id="exterieur" d="M12.5 46.8227C12.8674 46.6662 13.2355 46.5113 13.6043 46.3581C43.2365 34.0453 76.0759 32.8757 104.898 43.1067C133.72 53.3376 156.164 74.1311 167.292 100.913V100.913C178.42 127.694 177.322 158.27 164.237 185.914C151.153 213.558 127.155 236.005 97.5228 248.318C97.154 248.472 96.7846 248.623 96.4144 248.773" stroke="#FF6600" stroke-width="15" stroke-linecap="round" stroke-linejoin="round"/>
</g>
</g>
</g>
</svg>
