<?xml version="1.0" encoding="UTF-8" standalone="no"?>
<svg
   xmlns:dc="http://purl.org/dc/elements/1.1/"
   xmlns:cc="http://creativecommons.org/ns#"
   xmlns:rdf="http://www.w3.org/1999/02/22-rdf-syntax-ns#"
   xmlns:svg="http://www.w3.org/2000/svg"
   xmlns="http://www.w3.org/2000/svg"
   id="svg8"
   version="1.1"
   viewBox="0 0 210 297"
   height="297mm"
   width="210mm">
  <defs
     id="defs2" />
  <metadata
     id="metadata5">
    <rdf:RDF>
      <cc:Work
         rdf:about="">
        <dc:format>image/svg+xml</dc:format>
        <dc:type
           rdf:resource="http://purl.org/dc/dcmitype/StillImage" />
        <dc:title></dc:title>
      </cc:Work>
    </rdf:RDF>
  </metadata>
  <g
     id="layer1">
    <g
       transform="translate(295.81093,376.14142)"
       id="layer1-6">
      <g
         id="g4723"
         transform="translate(-396.09266,-101.84328)">
        <path
           id="path4582-5"
           d="m 166.8653,-201.71052 v 0 c 48.95122,32.47635 56.9948,94.39594 17.96588,138.301294 -0.2332,0.262464 -0.46792,0.524777 -0.70417,0.78526"
           style="fill:none;fill-opacity:1;stroke:#ffb764;stroke-width:12.79007244;stroke-linecap:round;stroke-miterlimit:4;stroke-dasharray:none;stroke-opacity:1" />
        <path
           id="path4582-5-6"
           d="m 131.99695,-170.11399 v 0 c 34.19374,25.26759 40.34719,72.636825 13.74404,105.802171 -0.15852,0.199059 -0.31856,0.396441 -0.47859,0.592908"
           style="fill:none;fill-opacity:1;stroke:#ffb764;stroke-width:9.29939079;stroke-linecap:round;stroke-miterlimit:4;stroke-dasharray:none;stroke-opacity:1" />
        <path
           id="path4582-5-6-9"
           d="m 231.65845,-170.05738 v 0 c -24.64716,22.85754 -71.49119,36.814 -104.62944,31.17265 -0.19967,-0.032 -0.39629,-0.0686 -0.59443,-0.10212"
           style="fill:none;fill-opacity:1;stroke:#ffb764;stroke-width:6.55151415;stroke-linecap:round;stroke-miterlimit:4;stroke-dasharray:none;stroke-opacity:1" />
        <path
           id="path4582-5-6-9-0"
           d="m 239.51273,-113.71467 v 0 c -26.08477,25.143904 -75.55009,39.755896 -110.48414,32.636712 -0.21186,-0.03963 -0.4161,-0.08536 -0.62491,-0.129556"
           style="fill:none;fill-opacity:1;stroke:#ffb764;stroke-width:7.13761997;stroke-linecap:round;stroke-miterlimit:4;stroke-dasharray:none;stroke-opacity:1" />
        <path
           id="path4582"
           d="m 139.04006,-238.584 a 109.3506,120.9902 82.598499 0 1 1.18734,-0.15958 109.3506,120.9902 82.598499 0 1 134.06879,92.85331 v 0 a 109.3506,120.9902 82.598499 0 1 -105.89528,124.025618 109.3506,120.9902 82.598499 0 1 -1.18886,0.14937"
           style="fill:none;fill-opacity:1;stroke:#ff6600;stroke-width:15;stroke-linecap:round;stroke-linejoin:round;stroke-miterlimit:4;stroke-dasharray:none;stroke-opacity:1" />
      </g>
    </g>
  </g>
</svg>